<svg xmlns="http://www.w3.org/2000/svg" version="1.1" xmlns:xlink="http://www.w3.org/1999/xlink" xmlns:svgjs="http://svgjs.dev/svgjs" viewBox="0 0 800 800">
  <defs>
    <linearGradient x1="50%" y1="0%" x2="50%" y2="100%" id="vvvortex-grad">
      <stop stop-color="hsl(206, 75%, 49%)" stop-opacity="1" offset="0%"></stop>
      <stop stop-color="hsl(331, 90%, 56%)" stop-opacity="1" offset="100%"></stop>
    </linearGradient>
  </defs>
  <g stroke="url(#vvvortex-grad)" fill="none" stroke-linecap="round">
    <circle r="363" cx="400" cy="400" stroke-width="11" stroke-dasharray="32 19" stroke-dashoffset="25" transform="rotate(217, 400, 400)" opacity="0.05"></circle>
    <circle r="346.5" cx="400" cy="400" stroke-width="11" stroke-dasharray="44 40" stroke-dashoffset="25" transform="rotate(196, 400, 400)" opacity="0.10"></circle>
    <circle r="330" cx="400" cy="400" stroke-width="10" stroke-dasharray="48 52" stroke-dashoffset="25" transform="rotate(54, 400, 400)" opacity="0.14"></circle>
    <circle r="313.5" cx="400" cy="400" stroke-width="10" stroke-dasharray="21 23" stroke-dashoffset="25" transform="rotate(298, 400, 400)" opacity="0.19"></circle>
    <circle r="297" cx="400" cy="400" stroke-width="10" stroke-dasharray="11 54" stroke-dashoffset="25" transform="rotate(214, 400, 400)" opacity="0.23"></circle>
    <circle r="280.5" cx="400" cy="400" stroke-width="10" stroke-dasharray="48 12" stroke-dashoffset="25" transform="rotate(341, 400, 400)" opacity="0.28"></circle>
    <circle r="264" cx="400" cy="400" stroke-width="9" stroke-dasharray="36 34" stroke-dashoffset="25" transform="rotate(180, 400, 400)" opacity="0.32"></circle>
    <circle r="247.5" cx="400" cy="400" stroke-width="9" stroke-dasharray="37 11" stroke-dashoffset="25" transform="rotate(183, 400, 400)" opacity="0.37"></circle>
    <circle r="231" cx="400" cy="400" stroke-width="9" stroke-dasharray="10 27" stroke-dashoffset="25" transform="rotate(256, 400, 400)" opacity="0.41"></circle>
    <circle r="214.5" cx="400" cy="400" stroke-width="8" stroke-dasharray="35 39" stroke-dashoffset="25" transform="rotate(278, 400, 400)" opacity="0.46"></circle>
    <circle r="198" cx="400" cy="400" stroke-width="8" stroke-dasharray="21 37" stroke-dashoffset="25" transform="rotate(312, 400, 400)" opacity="0.50"></circle>
    <circle r="181.5" cx="400" cy="400" stroke-width="8" stroke-dasharray="16 15" stroke-dashoffset="25" transform="rotate(138, 400, 400)" opacity="0.55"></circle>
    <circle r="165" cx="400" cy="400" stroke-width="8" stroke-dasharray="24 15" stroke-dashoffset="25" transform="rotate(321, 400, 400)" opacity="0.59"></circle>
    <circle r="148.5" cx="400" cy="400" stroke-width="7" stroke-dasharray="51 52" stroke-dashoffset="25" transform="rotate(163, 400, 400)" opacity="0.64"></circle>
    <circle r="132" cx="400" cy="400" stroke-width="7" stroke-dasharray="25 31" stroke-dashoffset="25" transform="rotate(112, 400, 400)" opacity="0.68"></circle>
    <circle r="115.5" cx="400" cy="400" stroke-width="7" stroke-dasharray="12 31" stroke-dashoffset="25" transform="rotate(3, 400, 400)" opacity="0.73"></circle>
    <circle r="99" cx="400" cy="400" stroke-width="6" stroke-dasharray="42 19" stroke-dashoffset="25" transform="rotate(263, 400, 400)" opacity="0.77"></circle>
    <circle r="82.5" cx="400" cy="400" stroke-width="6" stroke-dasharray="35 19" stroke-dashoffset="25" transform="rotate(155, 400, 400)" opacity="0.82"></circle>
    <circle r="66" cx="400" cy="400" stroke-width="6" stroke-dasharray="20 43" stroke-dashoffset="25" transform="rotate(304, 400, 400)" opacity="0.86"></circle>
    <circle r="49.5" cx="400" cy="400" stroke-width="6" stroke-dasharray="41 18" stroke-dashoffset="25" transform="rotate(313, 400, 400)" opacity="0.91"></circle>
    <circle r="33" cx="400" cy="400" stroke-width="5" stroke-dasharray="17 22" stroke-dashoffset="25" transform="rotate(213, 400, 400)" opacity="0.95"></circle>
    <circle r="16.5" cx="400" cy="400" stroke-width="5" stroke-dasharray="28 38" stroke-dashoffset="25" transform="rotate(14, 400, 400)" opacity="1.00"></circle>
  </g>
</svg>
